<?xml version="1.0" standalone="no"?>
<!DOCTYPE svg PUBLIC "-//W3C//DTD SVG 20010904//EN"
 "http://www.w3.org/TR/2001/REC-SVG-20010904/DTD/svg10.dtd">
<svg version="1.0" xmlns="http://www.w3.org/2000/svg"
 width="700.000000pt" height="700.000000pt" viewBox="0 0 700.000000 700.000000"
 preserveAspectRatio="xMidYMid meet">
<metadata>
Created by potrace 1.14, written by Peter Selinger 2001-2017
</metadata>
<g transform="translate(0.000000,700.000000) scale(0.100000,-0.100000)"
fill="#000000" stroke="none">
<path d="M2208 6114 c-105 -17 -153 -31 -244 -74 -218 -101 -382 -284 -458
-511 -40 -119 -45 -161 -46 -391 -1 -176 -2 -178 -23 -178 -322 -4 -352 -6
-395 -29 -143 -74 -205 -241 -140 -382 31 -68 76 -113 147 -147 52 -24 64 -25
230 -27 l176 -1 2 -292 1 -292 -171 0 c-196 -1 -237 -10 -311 -72 -153 -129
-124 -383 54 -473 66 -33 83 -36 267 -36 l162 0 -1 -289 c0 -160 -3 -290 -7
-291 -3 -1 -83 -2 -176 -3 -160 -2 -173 -4 -225 -28 -70 -33 -117 -78 -146
-142 -73 -161 11 -351 178 -400 24 -8 97 -14 168 -14 69 0 144 -1 167 -1 l41
-1 0 -170 c0 -93 3 -193 7 -222 50 -397 351 -705 742 -761 65 -10 478 -12
1752 -11 916 0 1689 4 1716 9 347 53 631 315 717 663 l22 87 0 1865 c1 1985 3
1890 -46 2035 -104 304 -373 529 -698 581 -79 13 -3380 11 -3462 -2z m3410
-583 c88 -24 173 -106 202 -196 11 -32 13 -379 14 -1810 1 -973 -3 -1792 -7
-1819 -20 -119 -106 -213 -220 -240 -21 -5 -2109 -10 -2902 -6 l-80 0 0 2038
0 2037 45 5 c92 10 2908 1 2948 -9z m-3287 -3 c0 -7 1 -138 2 -291 l2 -277
-40 -1 c-59 -1 -143 -1 -203 0 l-52 1 3 183 c3 163 6 187 26 227 25 51 63 96
105 123 61 40 155 61 157 35z m0 -1168 c0 -8 1 -139 1 -290 l1 -275 -145 -2
-146 -2 0 286 c-1 158 1 289 3 292 2 4 67 6 144 6 120 1 141 -2 142 -15z m0
-1168 c1 -23 1 -522 0 -547 -1 -20 -7 -21 -143 -20 l-143 1 -1 292 -2 292 144
-1 c127 0 144 -2 145 -17z m-16 -1151 c20 -1 20 -7 18 -269 -1 -147 -2 -278
-2 -291 -1 -22 -4 -23 -41 -18 -89 12 -179 79 -221 165 -21 43 -23 62 -26 229
l-2 182 52 3 c29 2 86 2 127 1 41 -1 84 -2 95 -2z"/>
<path d="M3970 4509 c-19 -5 -44 -10 -55 -13 -11 -2 -52 -19 -90 -36 -53 -25
-89 -53 -150 -114 -119 -121 -165 -226 -171 -392 -8 -232 115 -436 325 -539
283 -140 631 -23 774 260 164 327 -12 724 -366 824 -66 19 -207 24 -267 10z"/>
<path d="M4048 3105 c-2 -1 -43 -5 -93 -8 -314 -21 -573 -187 -598 -382 -9
-69 46 -121 174 -164 71 -23 86 -27 169 -41 114 -20 181 -24 380 -25 181 0
277 5 345 19 11 2 40 7 65 11 25 4 85 20 134 36 134 44 185 86 186 152 0 36
-29 114 -53 144 -131 158 -341 243 -639 257 -37 2 -69 2 -70 1z"/>
</g>
</svg>
